<svg xmlns="http://www.w3.org/2000/svg" width="210mm" height="297mm" viewBox="0 0 210 297"><g clip-rule="evenodd" fill-rule="evenodd" image-rendering="optimizeQuality" shape-rendering="geometricPrecision" text-rendering="geometricPrecision"><path d="M43.2 210.39c2.544 1.922 2.547 3.992 7.757 2.127 7.15-2.557 6.754-7.352 10.056-3.62 7.04 7.953 12.666 2.036 17.628-1.734 2.812-2.139 2.881.072 6.821 2.058 8.524 4.295 13.483-3.025 16.482-1.971 2.624.923 5.337 7.779 15.174 4.28 4.33-1.541 4.295-2.523 7.895.159 7.721 5.753 11.084-1.559 16.678-.153 6.1 1.53 8.01 6.264 15.033 6.708 4.015.257 5.81.91 9.32 1.686-.392 3.397-1.746 5.897-2.447 8.997-.817 3.605-1.18 5.196-3.897 7.049-7.014 4.789-29.468 3.957-39.063 3.949l-21.219.591c-7.66.67-23.97-.167-31.468-1.42-5.216-.871-23.274-2.202-24.977-7.914-.97-3.25-.023-16.407.228-20.792zm123.56 5.764c-1.835.104-2.167-.228-4.488-.672-8.755-1.68-5.17.817-12.727-3.478-3.885-2.209-1.954-1.626-7.242-3.64-5.089-1.937-9.586 2.62-13.041 2.159-1.833-.246-5.516-5.943-11.812-2.895-2.624 1.273-5.755 2.485-8.287 1.12-2.277-1.227-3.51-3.614-6.096-4.503-6.902-2.373-9.145 6.4-16.955 1.72-1.992-1.195-3.972-3.943-7.595-2.84-1.385.421-4.884 3.475-6.145 4.402-8.79 6.457-6.694-3.58-14.086-3.461-2.183.034-6.665 5.793-10.167 5.738-1.287-.02-1.013-.075-1.353-1.296-1.094-3.946-.863-5-1.325-6.945-.474-2.003-1.351-1.524-1.406-3.98-.121-5.176 2.89-8.262 7.918-8.868l4.684-.617c2.237-.361 12.597.02 15.712.23 1.64.113 2.667.607 4.28.965 2.844.632 6.391 1.14 9.6 1.186 6.986.101 14.303-.144 21.124.48 10.273.94 19.496 1.653 29.708 3.007 8.989 1.19 19.077-.46 26.602 5.55 4.835 3.863 5 11.041 3.097 16.638zM56.82 168.758c.828.6 1.061 1.166 2.09 1.876 5.365 3.72 8.33 1.221 11.297-.052a41.055 41.055 0 012.655-1.007c2.145-.716 3.88.739 5.644 1.628 11.618 5.85 18.898-3.527 22.705-4.451 2.534 3.045 6.4 9.092 11.817 9.176 5.767.087 9.907-5.074 14.13-6.933 4.716-2.081 4.604-.886 6.7 2.133 5.108 7.37 9.207 4.835 14.013 2.678.791-.355 8.694-.86 8.94.88l-.901 8.438c-.465 3.568-.54 5.557-.205 9.2-3.689-.113-8.368-.702-12.588-.976-6.509-.419-6.437-.595-12.256-1.288-8.131-.967-16.612-1.2-24.798-2.006-8.397-.822-17.206-.257-25.502-1.25-2.197-.262-3.718-.903-5.698-1.296-4.154-.825-14.248-.874-19.04-1.004zm.97-6.59c.617-2.477.819-4.14 2.678-5.588 3.666-2.86 15.2-4.197 20.156-4.033 4.803.16 10.498-.19 14.678.182 5.155.462 9.814.884 14.747.806l15.602.545c5.025.49 9.831.56 14.82.678 2.909.07 5.16.231 7.954.43 2.564.182 4.812.269 5.874 2.11 1.193 2.064 2.78 10.415 2.662 13.426-2.471.075-8.602-1.43-10.611-.647-1.048.41-2.456 1.617-3.784 2.162-2.428.996-2.768-.208-4.209-.99.078-.075.196-.133.272-.173.072-.04.181-.113.268-.162.087-.043.176-.092.268-.138l.976-.425c1.32-.912.124-1.965-.981-3.354-1.796.124-1.49.961-2.457 1.992-.73-1.657-1.942-3.155-3.83-3.793-9.41-3.18-16.214 9.826-21.71 6.79-4.165-2.301-4.549-6.484-7.427-7.78-6.243-2.814-8.81 4.157-15.725 5.415-6.033 1.1-8.458-2.283-11.263-3.207-8.32-2.74-11.815 6.902-16.182.237-1.634-2.491.557-.973-2.777-4.483zm18.776-13.087c.592-1.695-.095-2.688.11-4.662.153-1.501.3-3.051.458-4.543.188-1.758.142-3.14.393-4.844.167-1.134.47-3.117 1.103-4.018 2.742 3.516 4.641 8.048 12.784 2.246 6.206-4.42 7.309 5.539 14.95 1.709 1.737-.872 4.805-3.796 6.707-3 .895.376 2.108 1.452 3.288 2.01 4.933 2.335 10.833-.87 12.86-1.063 3.49-.332 5.366.987 8.697 1.426l.11 16.462c-5.234-.118-10.8.046-15.92-.344-4.546-.343-10.357-.54-15.03-.461-5.302.086-9.886-.59-15.217-.728-5.086-.13-10.219-.297-15.293-.19zm3.949-24.62c1.356-2.502 2.063-4.2 4.39-5.637 1.59-.978 5.265-2.19 7.615-2.268 9.65-.32 18.776-.35 28.256 1.463 14.608 2.794 17.41-.393 16.753 12.77-3.164.11-5.069-1.264-8.299-1.261-3.804.005-4.353 1.333-7.352 1.832-5.432.901-5.885-3.149-11.119-2.82-1.81.116-2.07.878-3.524 1.328.326-4.032 1.596-2.89 2.153-5.461-1.437.185-2.029 1.004-2.9 1.784-1.051.938-1.481 1.192-2.65 1.896.28.719.464 1.034 1.018 1.539l1.236 1.042c.046-.07.159.144.228.228-2.168.768-2.044 1.763-5.326 1.55-1.097-1.533-2.857-2.942-5.496-3.28-3.87-.496-4.785.35-7.037 1.83-4.875 3.208-5.767 1.337-6.81-3.313-.34-1.524-.799-2.04-1.136-3.221zm26.991-29.935c3.351.314 4.69-2.11 5.71-3.923 1.4-2.485 4.682-6.194 7.713-5.776 4.777.661-1.074 13.991-2.15 17.547-.428 1.415-.653 1.487-1.106 2.864-.29.877-.485 1.962-.846 2.808-.73 1.706-1.79 3.519-2.058 5.588-4.324-.297-9.194-.588-13.662-.736-.2-3.045-1.103-2.944-2.335-4.615-.88-1.195-1.536-3.377-2.182-4.792-1.96-4.28-2.033-6.936-.679-11.641.99-3.44 2.425-7.19 6.628-6.232 4.572 1.04 2.938 5.68 4.967 8.908zm12.069 20.018c.04-1.761 1.576-4.209 2.133-6.212l4.364-11.823c6.535-13.902-5.611-18.713-13.63-11.985-1.166.979-.701 1.077-2.159 1.951l-1.63-2.286c-2.39-2.347-5.808-3.163-9.105-1.971-2.17.785-3.264 1.587-4.48 3.412-2.62 3.934-1.244 3.065-2.358 5.585-2.023 4.572-1.478 11.373 1.348 15.5.667.976.95 1.652 1.49 2.497 1.674 2.621 3.137 2.604 3.495 3.906-12.317.534-16.006.245-22.362 9.704-3.025 4.503-4.208 13.668-4.269 19.499-.037 3.764.583 6.765.554 7.233-5.037.404-12.62 2.254-16.571 5.277-5.04 3.859-5.3 23.536-5.17 30.256-3.23.364-4.03.823-6.636 1.966-3.542 1.555-2.413 1.016-3.608 4.592-.445 1.325-.95 1.614-1.247 3.077-.07.338.28 7.147-.468 11.379-.476 2.687-.51 13.246-.83 15.956-.67 5.646.481 10.389 3.51 13.186 3.552 3.282 7.109 3.097 12.33 4.514 6.752 1.827 23.52 4.065 29.298 4.25 10.334.328 44.285-1.23 49.547-.745 7.323.675 22.977-.139 29.33-3.9 5.528-3.268 4.913-7.283 5.779-11 .464-2 1.39-4.426 1.896-6.703 1.6-7.196 3.016-15.397-.898-20.751-2.072-2.84-5.712-6.07-9.54-7.329.82-1.573.67-4.679.993-6.864 1.143-7.745 1.328-14.205.061-22.018-.603-3.715-1.414-9.272-4.46-11.37-2.427-1.674-9.378-2.3-13.278-2.35l-.014-15.757c1.642-.855 2.018-2.211-.32-2.988.248-6.8-.174-13.188-5.349-15.157-1.697-.644-6.573-.915-8.87-1.423-2.18-.479-6.674-.999-8.876-1.108zm14.409-36.774c1.12.808 1.501 1.345 3.045.554.933-.476 2.24-1.077 2.803-1.804l5.063-8.478c1.253-3.201 5.943-5.556 4.212-8.111-2.01-2.962-3.438-.407-4.887 1.126-4.728 5.005-4.16 4.615-7.895 10.276-1.22 1.85-2.295 3.645-2.34 6.437zm-7.36-19.464c1.954-4.67-2.578-6.324-4.177-4.818-1.077 1.016-3.909 11.968-4.697 13.804-2.156 5.045 3.756 8.451 5.597 2.719 1.727-5.378 1.115-6.535 3.277-11.705zm-19.326 14.222c.598-1.342-2.257-10.334-2.62-12.571-.699-4.304-3.99-4.24-4.044-4.376-.044-.104-.162-.084-.237-.133-.655.88-.84.598-1.798 1.282.3 1.394.375.401.718 2.067 1.037 5 .618 5.1 2.42 11.476.6 2.12.923 2.116 1.78 3.458.941.03 1.565.254 2.344-.11zm-15.171.381a58.458 58.458 0 00-1.438-2.182c-1.867-2.708-4.364-11.55-9.282-8.282-.405 2.488 4.378 10.123 6.18 12.366.99 1.23 1.717 2.211 2.557 3.337l1.715-.119c1.226-1.847 1.339-3.403.268-5.12z" class="fil0" fill="#2e2e2e"/><path d="M86.475 193.478c1.25 3.325.43 1.285.208 3.481-.156 1.53 1.371 2.29 2.716 2.405.967-1.452.75-2.099-.713-2.936l.387-.537c.078-.11.468-.644.48-.667.556-1.1-.284-2.113-1.331-2.768-.976.439-1.08.413-1.747 1.022zm15.403-69.507c1.353-.329 1.942-1.088 2.782-1.914-.485-.655-.79-1.08-1.224-1.685-1.377-.3-3.634-.592-3.524.69.066.776-.017.057.303.574.049.08.242.309.3.395.04.067.095.147.139.217.04.069.083.153.124.225.618 1.05.228.716 1.1 1.498zm-49.189 70.445c.476.664.81 1.077 1.36 1.596 1.575 1.493 3.024.59 3.301-.106.052-3.112-3.354-3.435-4.661-1.49zm41.02-73.418c-2.483-.21-2.7-.69-3.484-.661-2.826.115-.289 4.708 1.815 3.325.419-.274 1.597-2.196 1.669-2.664zm59.545 46.325c1.588-1.616-2.615-3.827-3.74-4.078.144 1.238.187 2.811.845 3.61.517.627 1.966 1.412 2.895.468zM56.891 198.61c.283 3.069 3.207 4.593 4.03 2.396.433-1.16-.716-1.88-1.285-2.303-1.154-.858-1.466-.82-2.745-.093zm37.747-40.342c.254 1.542 1.646 2.2 2.514 3.066 2.936-1.296 1.845-2.41 0-4.015-.932.22-1.78.465-2.514.95zm5.75 39.147c.63-.854 1.556-1.512.404-2.814-.756-.855-1.743-1.155-3.163-1.184-.702 2.78.716 3.1 2.76 3.998zm14.831-31.607c-.75-1.75-1.622-2.098-4.171-1.896l.67 2.932c1.856.687 2.828.806 3.501-1.036zm-40.247 29.445c-.023-1.117-.274-2.035-1.469-2.47-3.025-1.1-3.377 1.601-.981 2.955 1.172.661 1.599.09 2.45-.485zm42.905-73.77c.278-3.19-3.977-3.112-3.93-1.79.034 1.016.787 1.954 1.526 2.335 1.056.549 1.645.119 2.404-.545zm-2.909 39.687l.003-1.614c-1.057-.75-2.119-1.163-3.842-.921-.098 2.534 1.763 3.735 3.839 2.534zm13.809-1.978c-.589-.603-1.048-1.123-2.22-1.22-1.4-.12-2.035.155-1.426 1.341.785 1.527 3.568 3.21 3.646-.12zm-42.87 1.181c1.42-2.133-.67-2.818-2.878-2.737-.2 2.278.542 3.213 2.878 2.737zm55.94-1.851c0 .696-.208 2.37.092 2.858 1.363 2.208 4.619-2.624-.092-2.858zm14.438 46.848c.534-1.873-.124-2.776-1.91-2.987-.918.95-1.23 2.13.227 2.866.803.407.852.214 1.683.121zm-22.205-79.586c-.436-3.334-5.387-2.607-2.012.796 1.183.03 1.345-.196 2.011-.796zm-21.216 76.276c.825.47 3.365 1.685 3.114-.5-.13-1.114-1.671-1.405-2.6-1.622-.321.652-.468 1.042-.514 2.122zm-23.433-34.682c.716-2.372-1.31-3.218-2.794-3.123.023 1.241.594 2.03 1.253 3.106zm17.336 24.648c-1.08 1.065.814 3.233 1.978 2.586 1.365-.759.277-2.424-.918-2.762-1.692-.48-.713-.164-1.06.176zm19.784-66.903c-.68-.832-1.411-1.293-2.843-1.273-.034 1.325.5 2.104.976 2.869 1.709.04 1.91.202 1.867-1.596zm-61.326 37.536l1.827-.381-.116-1.972c-2.698-1.515-3.007.34-1.711 2.353zm76.463 36.777c.28-2.462-2.245-2.84-2.661-2.053-.401.762.638 2.844 2.661 2.053zm20.902 9.961c.773-.739-.24-1.406-.806-1.642l-1.98-.788c-.318 2.326 1.85 3.328 2.785 2.43zm-83.96-8.033c.464-.574.698-.534.82-1.487-2.142-2.609-4.63.393-.82 1.487zm50.427 2.482c.48.884.58 1.063 1.865 1.27l.617-1.596-.93-1.235c-.969.424-1.142.805-1.552 1.561zm-19.467-.993c-.34-1.1-.747-1.74-2.127-1.96-.5 1.753.618 3.141 2.127 1.96zm14.563-1.322c-.17-.825-.055-.82-.924-1.275-.652-.344-1.302-.693-1.414.25-.13 1.072 1.036 2.116 2.338 1.025zm18.569 2.362c-.436-1.074-1.262-1.288-2.373-1.17-.156 1.854 1.166 2.206 2.373 1.17zm-19.507-6.726c.332-4.171-4.31-.064 0 0z" class="fil0" fill="#2e2e2e"/></g></svg>