<svg xmlns="http://www.w3.org/2000/svg" viewBox="0 0 79.7 93.2"><path d="M40.2 88.8c-.7 0-1.5-.3-1.9-.9-.1-.1-7.2-8.9-14.9-14.8-.8-.6-1.7-1.3-2.5-1.9-7.5-5.5-16-11.8-16-22.1 0-10.4 6.5-16.9 17-16.9 9.5 0 15.4 6.6 18.3 11.2 3-4.6 8.9-11.3 18.3-11.3 10.5 0 17 6.5 17 16.9 0 10.3-8.5 16.5-16 22.1-.8.6-1.7 1.3-2.5 1.9-7.4 5.7-14.2 14-14.8 14.8-.3.5-.8.8-1.4.9-.2.1-.4.1-.6.1zM21.8 37.3c-7.8 0-12 4.2-12 11.9 0 7.8 6.8 12.8 13.9 18.1.9.6 1.7 1.3 2.6 1.9 5.8 4.4 11.1 10.1 13.8 13.3 2.7-3.2 8.1-8.9 13.9-13.3.8-.6 1.7-1.3 2.6-1.9C63.8 62 70.5 57 70.5 49.2c0-7.7-4.3-11.9-12-11.9-10.7 0-15.8 11.9-16 12.5-.3.9-1.2 1.5-2.1 1.6-1.1.1-2.1-.5-2.5-1.5-.1-.3-5.2-12.6-16.1-12.6zm-14.7-6h-.3c-1.4-.1-2.4-1.4-2.2-2.8 0-.3.9-7.9 4.6-12.6 3.6-4.5 8.1-7 8.2-7.1.8-.4 1.7-.4 2.5 0s1.2 1.3 1.2 2.2c0 2.4.7 6.8 2.4 8.4.5.4 1 .6 1.7.6 1.9-.1 2.5-1.1 3.8-4.9.6-1.7 1.2-3.6 2.3-5.3C34.8 3.7 41.7 2 42 1.9c.7-.2 1.4 0 1.9.3s1 1 1.1 1.6c1 5.2 3.9 14.3 7.2 16.4.7.4 1.1.4 1.5.3 5.5-1.4 5.2-8.7 5.2-9 0-.9.4-1.7 1-2.2.7-.5 1.6-.6 2.4-.3.3.1 7 2.9 10 9.3 1.9 4.1 2.9 8.8 2.9 9 .3 1.4-.6 2.7-2 2.9-1.4.3-2.7-.6-2.9-2 0 0-.9-4.4-2.6-7.9-1-2.2-2.8-3.9-4.3-5-.8 3.9-3.2 8.4-8.6 9.9-1.8.5-3.7.2-5.4-.9-4.8-3-7.6-12-8.8-16.8-1.7.8-3.9 2.3-5.3 4.5-.8 1.3-1.3 2.8-1.8 4.3-1.2 3.5-2.7 7.9-8.2 8.3-2 .1-3.9-.5-5.4-1.9-2.1-1.9-3-5-3.5-7.5-1.1.9-2.4 2.1-3.5 3.5C10.3 22.5 9.5 29 9.5 29c-.1 1.3-1.2 2.3-2.4 2.3z" fill="#fff"/></svg>